HIERARCHY
ROOT SpineBase
{
  OFFSET 0.000000 0.000000 0.000000
  CHANNELS 6 Xposition Yposition Zposition Zrotation Xrotation Yrotation
  JOINT SpineMid
  {
    OFFSET 0.000000 32.196175 -0.000000
    CHANNELS 3 Zrotation Xrotation Yrotation
    JOINT SpineShoulder
    {
      OFFSET 0.234274 23.771761 -0.894559
      CHANNELS 3 Zrotation Xrotation Yrotation
      JOINT Neck
      {
        OFFSET 0.043991 7.812708 -0.616167
        CHANNELS 3 Zrotation Xrotation Yrotation
        JOINT Head
        {
          OFFSET -0.631080 10.980173 6.544838
          CHANNELS 3 Zrotation Xrotation Yrotation
          End Site
          {
            OFFSET 0 0 0
          }
        }
      }
      JOINT ShoulderLeft
      {
        OFFSET -11.694979 -8.141565 12.106791
        CHANNELS 3 Zrotation Xrotation Yrotation
        JOINT ElbowLeft
        {
          OFFSET 12.197700 -18.732072 -22.950195
          CHANNELS 3 Zrotation Xrotation Yrotation
          JOINT WristLeft
          {
            OFFSET 14.587004 -25.600898 -9.420276
            CHANNELS 3 Zrotation Xrotation Yrotation
            JOINT HandLeft
            {
              OFFSET 3.880728 -6.785213 -1.010245
              CHANNELS 3 Zrotation Xrotation Yrotation
              JOINT HandTipLeft
              {
                OFFSET 3.510787 -7.991110 1.123912
                CHANNELS 3 Zrotation Xrotation Yrotation
                End Site
                {
                  OFFSET 0 0 0
                }
              }
              JOINT ThumbLeft
              {
                OFFSET -1.247952 -4.655898 -1.968129
                CHANNELS 3 Zrotation Xrotation Yrotation
                End Site
                {
                  OFFSET 0 0 0
                }
              }
            }
          }
        }
      }
      JOINT ShoulderRight
      {
        OFFSET -0.193257 -5.454626 -13.074791
        CHANNELS 3 Zrotation Xrotation Yrotation
        JOINT ElbowRight
        {
          OFFSET 4.490651 -25.395624 -4.953257
          CHANNELS 3 Zrotation Xrotation Yrotation
          JOINT WristRight
          {
            OFFSET 3.142251 -21.768047 3.302307
            CHANNELS 3 Zrotation Xrotation Yrotation
            JOINT HandRight
            {
              OFFSET 1.775857 -6.023017 2.337575
              CHANNELS 3 Zrotation Xrotation Yrotation
              JOINT HandTipRight
              {
                OFFSET 1.855273 -3.130681 -0.277554
                CHANNELS 3 Zrotation Xrotation Yrotation
                End Site
                {
                  OFFSET 0 0 0
                }
              }
              JOINT ThumbRight
              {
                OFFSET -2.049529 2.903205 -0.955617
                CHANNELS 3 Zrotation Xrotation Yrotation
                End Site
                {
                  OFFSET 0 0 0
                }
              }
            }
          }
        }
      }
    }
  }
  JOINT HipLeft
  {
    OFFSET -2.687921 0.609518 -3.723003
    CHANNELS 3 Zrotation Xrotation Yrotation
    JOINT KneeLeft
    {
      OFFSET 10.826081 -37.739129 -4.227042
      CHANNELS 3 Zrotation Xrotation Yrotation
      JOINT AnkleLeft
      {
        OFFSET -3.814414 -34.102000 0.316015
        CHANNELS 3 Zrotation Xrotation Yrotation
        JOINT FootLeft
        {
          OFFSET 3.574582 -7.315249 -3.600840
          CHANNELS 3 Zrotation Xrotation Yrotation
          End Site
          {
            OFFSET 0 0 0
          }
        }
      }
    }
  }
  JOINT HipRight
  {
    OFFSET 3.151252 1.570941 -3.727295
    CHANNELS 3 Zrotation Xrotation Yrotation
    JOINT KneeRight
    {
      OFFSET 14.523125 -32.162835 17.287872
      CHANNELS 3 Zrotation Xrotation Yrotation
      JOINT AnkleRight
      {
        OFFSET -8.053246 -38.356646 11.336818
        CHANNELS 3 Zrotation Xrotation Yrotation
        JOINT FootRight
        {
          OFFSET -7.460998 -4.452458 -6.206271
          CHANNELS 3 Zrotation Xrotation Yrotation
          End Site
          {
            OFFSET 0 0 0
          }
        }
      }
    }
  }
}
MOTION
Frames: 15
Frame Time: 0.033333
-15.148518 78.249164 236.902253 -1.190590 0.292029 -30.082309 0.049860 0.016445 30.039713 -0.760165 -0.435135 -0.112374 -1.734811 -0.032842 2.312730 0.000000 0.000000 0.000000 1.899269 0.158261 0.146319 -1.992124 -1.777628 -0.315675 -7.377792 -8.095486 -4.800470 5.633270 7.860227 2.681968 0.000000 0.000000 0.000000 0.000000 0.000000 0.000000 0.573451 -0.141553 0.353377 1.327654 0.291594 -0.210243 4.507973 18.601091 6.895303 -5.957766 -12.528845 -5.294733 0.000000 0.000000 0.000000 0.000000 0.000000 0.000000 6.136512 0.613659 28.907980 -5.718631 0.310197 1.435469 -32.343127 7.389809 25.023228 0.000000 0.000000 0.000000 2.487334 1.019380 30.820435 -0.008781 -2.458554 0.247072 29.588256 -21.357272 -1.741296 0.000000 0.000000 0.000000
-14.673402 78.571674 236.983578 -0.939118 -0.062898 -33.284423 -0.104648 -0.141096 33.243048 -0.763900 -0.553203 -0.111336 -3.191475 -0.797429 3.091561 0.000000 0.000000 0.000000 1.866652 0.680731 0.132382 -1.858299 -2.162132 -0.592905 -7.229451 -8.197696 -4.801863 6.248358 8.151129 2.878664 0.000000 0.000000 0.000000 0.000000 0.000000 0.000000 0.527160 0.383552 0.354786 1.341231 0.288985 -0.213346 6.495742 20.832594 7.962025 -10.132321 -17.575827 -9.784145 0.000000 0.000000 0.000000 0.000000 0.000000 0.000000 5.049295 1.374527 32.280060 -4.951843 -0.995523 1.270683 -40.524948 8.513229 32.448490 0.000000 0.000000 0.000000 1.508423 1.941284 34.337697 0.208449 -3.356711 0.010418 32.064828 -23.172599 -1.613576 0.000000 0.000000 0.000000
-14.029781 78.772638 237.119267 -0.555130 -0.702370 -37.637635 -0.160856 -0.353346 37.609877 -0.693813 -0.650432 -0.095424 -5.526510 -1.582205 4.245966 0.000000 0.000000 0.000000 1.589574 1.537163 0.095500 -1.564165 -2.714687 -1.025435 -6.648364 -8.212334 -4.708602 7.609449 8.062789 2.965282 0.000000 0.000000 0.000000 0.000000 0.000000 0.000000 0.237130 1.243348 0.341210 1.353703 0.286105 -0.216275 9.608174 23.552625 9.275264 -17.013825 -22.320126 -15.836590 0.000000 0.000000 0.000000 0.000000 0.000000 0.000000 3.517415 2.194048 36.826871 -4.083796 -2.354154 1.116725 -51.649738 8.277392 42.846361 0.000000 0.000000 0.000000 -0.472072 3.459884 39.349908 0.190324 -5.202945 -0.579221 42.861323 -29.742844 5.742787 0.000000 0.000000 0.000000
-13.665791 78.827780 237.333323 -0.514483 -1.528239 -42.044143 -0.081918 -0.392750 42.026116 -0.618875 -0.636135 -0.085673 -8.102958 -2.701554 5.642274 0.000000 0.000000 0.000000 0.751848 2.591908 1.085764 -0.411746 -3.496965 -2.545058 -5.673164 -8.225846 -4.580724 8.654147 8.018107 3.198222 0.000000 0.000000 0.000000 0.000000 0.000000 0.000000 0.090272 2.112558 0.339919 0.155416 5.887977 0.474996 13.148062 22.253513 11.451802 -26.713632 -29.335396 -25.445650 0.000000 0.000000 0.000000 0.000000 0.000000 0.000000 2.304273 3.523021 41.394063 -3.682555 -3.752779 0.996962 -62.300128 6.258559 53.122856 0.000000 0.000000 0.000000 -2.577873 5.356787 44.710467 0.116351 -7.105534 -1.375235 64.983517 -37.285177 24.255646 0.000000 0.000000 0.000000
-12.957674 78.598643 237.471903 -0.162711 -2.652033 -46.444791 -0.046052 -0.517637 46.457657 -0.525195 -0.737212 -0.066592 -11.041367 -3.868448 7.171869 0.000000 0.000000 0.000000 -0.284759 3.918792 1.949527 0.661509 -4.253111 -3.967055 -5.579052 -7.939228 -4.181156 10.432933 7.682225 3.058464 0.000000 0.000000 0.000000 0.000000 0.000000 0.000000 -0.282541 3.426580 0.333344 0.465038 4.560867 0.298169 14.281949 20.031611 10.711105 -32.269458 -27.070645 -27.445587 0.000000 0.000000 0.000000 0.000000 0.000000 0.000000 0.469242 4.185846 45.965285 -3.076227 -4.715824 0.929289 -65.578411 5.349697 56.394791 0.000000 0.000000 0.000000 -5.483221 6.550874 49.897970 0.291053 -8.789241 -1.946189 90.361619 -37.378915 47.387690 0.000000 0.000000 0.000000
-12.477706 77.979696 237.529602 -0.162271 -3.891507 -50.823147 0.295442 -0.539909 50.855209 -0.258037 -0.807145 -0.045356 -13.875725 -4.844488 8.710360 0.000000 0.000000 0.000000 -1.517134 5.402436 2.957795 1.502270 -5.088697 -5.463704 -5.750581 -7.602901 -3.814237 12.173632 7.309432 2.796309 0.000000 0.000000 0.000000 0.000000 0.000000 0.000000 -0.732809 4.986911 0.335424 1.936366 -2.551460 -0.532671 17.438161 27.042604 10.122407 -42.225877 -26.803311 -33.615318 0.000000 0.000000 0.000000 0.000000 0.000000 0.000000 -0.836688 4.924007 50.362866 -2.955272 -5.178555 0.987863 -66.061630 5.399960 57.172205 0.000000 0.000000 0.000000 -7.783877 7.529650 54.959430 0.177844 -9.808290 -2.440120 109.083992 -33.987214 60.574000 0.000000 0.000000 0.000000
-11.114767 77.736921 237.415385 0.885438 -5.194507 -53.619610 0.203114 -0.745813 53.759769 -0.271362 -0.839942 -0.010018 -16.735474 -5.826423 10.105543 0.000000 0.000000 0.000000 -3.132163 6.664765 4.048801 2.185881 -5.921184 -6.958821 -6.778475 -6.962139 -3.168168 14.281806 6.448690 2.123705 0.000000 0.000000 0.000000 0.000000 0.000000 0.000000 -1.518861 6.363532 0.339317 4.395407 -15.204122 -1.576593 25.756758 41.864203 6.070009 -56.644232 -27.884655 -44.655522 0.000000 0.000000 0.000000 0.000000 0.000000 0.000000 -3.269936 3.489219 53.346132 -1.824078 -5.177239 0.974581 -63.234192 6.612344 54.906423 0.000000 0.000000 0.000000 -11.408846 6.714539 57.804002 1.319379 -10.952497 -2.227204 115.034019 -30.438564 66.962422 0.000000 0.000000 0.000000
-9.615138 77.375355 237.439326 2.094026 -6.718412 -54.657346 0.049182 -0.889293 54.955377 -0.337094 -0.942430 0.034652 -19.136466 -6.115424 11.335040 0.000000 0.000000 0.000000 -4.846185 8.039288 5.106363 2.167215 -6.538394 -8.113507 -8.705312 -6.400337 -2.610448 16.575998 6.229479 1.361914 0.000000 0.000000 0.000000 0.000000 0.000000 0.000000 -2.436921 7.945425 0.366165 7.574532 -33.208785 -2.291719 96.772315 66.437515 -49.463493 -95.555214 -21.354798 -75.580133 0.000000 0.000000 0.000000 0.000000 0.000000 0.000000 -6.695113 2.167662 54.907078 -0.416214 -5.901953 0.634855 -62.522020 6.849155 54.641634 0.000000 0.000000 0.000000 -15.336946 5.352948 58.403496 3.314494 -11.969645 -1.454328 101.074257 -31.346613 63.924481 0.000000 0.000000 0.000000
-7.561568 77.097481 237.356754 3.978111 -8.098556 -55.285295 -0.273347 -1.180842 55.849664 -0.526889 -0.995900 0.102455 -21.233173 -6.030552 12.225099 0.000000 0.000000 0.000000 -6.769734 9.137671 6.027901 1.361865 -6.952589 -8.854154 -11.181832 -5.734172 -2.033521 18.778634 6.260213 0.449445 0.000000 0.000000 0.000000 0.000000 0.000000 0.000000 -3.679985 9.283869 0.410835 11.460506 -50.539715 -1.639928 120.935789 45.586305 -65.554155 -113.731054 -12.397209 -72.725971 0.000000 0.000000 0.000000 0.000000 0.000000 0.000000 -10.234472 -1.438723 55.873342 2.681425 -5.351876 0.415842 -62.054077 6.891825 53.926471 0.000000 0.000000 0.000000 -19.962659 2.388289 57.682028 6.614952 -12.796321 0.151598 99.502626 -33.412660 59.556317 0.000000 0.000000 0.000000
-5.418256 76.818980 237.177284 5.770058 -9.099591 -55.906607 -0.237726 -1.187345 56.743378 -0.998718 -0.978480 0.188502 -23.055478 -6.167225 12.834332 0.000000 0.000000 0.000000 -8.624210 9.889826 6.771742 -0.039781 -7.022717 -9.117238 -13.412538 -5.292714 -1.799021 20.002211 6.713120 -0.300785 0.000000 0.000000 0.000000 0.000000 0.000000 0.000000 -4.982126 10.309908 0.470038 16.010895 -63.275408 0.743622 127.310332 16.839821 -57.331562 -138.617931 -15.173886 -69.364365 0.000000 0.000000 0.000000 0.000000 0.000000 0.000000 -13.710673 -5.175070 56.804356 5.702874 -5.444886 0.076773 -61.377486 7.063208 53.367063 0.000000 0.000000 0.000000 -24.029638 -1.297162 56.204166 10.421441 -12.992040 2.246354 85.323852 -37.250693 44.863359 0.000000 0.000000 0.000000
-3.973177 76.453372 237.009104 6.837448 -10.009648 -55.410379 -0.452903 -0.868987 56.416522 -1.130951 -1.085959 0.255250 -24.165126 -6.254977 13.053320 0.000000 0.000000 0.000000 -10.079775 10.362399 7.315133 -1.767864 -6.951903 -9.049695 -15.598275 -4.675340 -1.464539 21.235499 7.211715 -1.023010 0.000000 0.000000 0.000000 0.000000 0.000000 0.000000 -6.044012 10.999933 0.527135 21.358609 -71.736609 4.767865 127.169580 -6.930845 -43.035877 -140.992824 -47.323813 -74.958264 0.000000 0.000000 0.000000 0.000000 0.000000 0.000000 -16.203518 -7.128569 56.515787 7.563170 -5.590902 -0.149304 -60.867887 7.201901 53.025066 0.000000 0.000000 0.000000 -24.593682 -3.068298 54.327524 11.510358 -11.178691 3.417713 57.465645 -35.337579 19.174889 0.000000 0.000000 0.000000
-3.428510 76.024413 236.780142 6.934666 -10.768664 -55.435676 -0.342841 -0.383813 56.477531 -0.936669 -1.209796 0.291717 -25.305560 -6.690888 13.490538 0.000000 0.000000 0.000000 -10.399096 13.288918 8.139049 -4.480469 -9.295711 -9.748111 -17.291658 -3.702737 -0.711506 21.985298 7.580218 -1.576097 0.000000 0.000000 0.000000 0.000000 0.000000 0.000000 -6.794366 11.712320 0.590561 26.776370 -76.790284 9.509628 127.846663 -19.534232 -35.801666 -96.559477 -66.643636 -53.999717 0.000000 0.000000 0.000000 0.000000 0.000000 0.000000 -17.274091 -7.500458 56.685474 8.230362 -5.705967 -0.224520 -62.040619 4.606814 52.368642 0.000000 0.000000 0.000000 -25.229006 -3.505254 53.865563 12.197337 -10.587479 3.970936 30.456539 -22.778530 7.605832 0.000000 0.000000 0.000000
-3.830739 75.598679 236.522135 6.121912 -11.293420 -54.112664 -0.119126 0.279408 55.032068 -0.608386 -1.225125 0.284326 -25.701646 -6.900936 13.712930 0.000000 0.000000 0.000000 -10.949402 13.043177 8.354588 -5.620168 -9.076975 -9.714712 -18.276631 -2.850538 -0.026025 22.240164 8.103426 -1.816630 0.000000 0.000000 0.000000 0.000000 0.000000 0.000000 -6.989805 12.058487 0.619698 29.085374 -78.532318 11.672419 131.755392 -24.179059 -33.882254 -63.977922 -66.232470 -34.187932 0.000000 0.000000 0.000000 0.000000 0.000000 0.000000 -16.736007 -5.302070 55.471956 7.061676 -5.752034 -0.083901 -61.564613 5.446632 52.702159 0.000000 0.000000 0.000000 -24.508039 -1.917972 52.979471 11.661467 -10.065959 3.839994 15.105886 -11.145745 -0.072943 0.000000 0.000000 0.000000
-5.192014 75.224669 236.252789 4.385922 -11.531458 -51.427490 0.331406 1.009616 52.063910 -0.234174 -1.158428 0.233008 -25.427507 -7.416806 13.792520 0.000000 0.000000 0.000000 -11.509604 10.275619 8.191193 -5.111843 -6.951208 -9.224985 -18.174992 -1.720264 0.905644 21.463359 8.172283 -1.872221 0.000000 0.000000 0.000000 0.000000 0.000000 0.000000 -6.495903 12.106604 0.608195 25.134387 -77.136880 8.155880 139.825712 -23.262152 -35.411918 -61.096926 -71.739507 -30.682377 0.000000 0.000000 0.000000 0.000000 0.000000 0.000000 -14.354070 -0.694047 52.707673 4.127268 -5.827645 0.254448 -59.992969 8.782910 53.750267 0.000000 0.000000 0.000000 -22.149122 1.725458 51.610784 9.734330 -9.668456 2.922926 7.476406 -2.694664 -5.577083 0.000000 0.000000 0.000000
-6.748551 74.858038 235.875898 2.578059 -11.715620 -47.958250 0.887125 1.409711 48.307785 0.141049 -1.171356 0.170765 -24.904559 -7.914571 13.936514 0.000000 0.000000 0.000000 -12.585673 5.557089 7.750127 -3.304487 -3.086682 -8.526720 -16.981874 -0.434807 1.816889 20.249218 7.768259 -1.892792 0.000000 0.000000 0.000000 0.000000 0.000000 0.000000 -5.739384 12.372524 0.601046 25.616000 -77.923936 8.631074 143.017631 -20.704809 -43.516863 -82.161081 -81.871514 -47.711430 0.000000 0.000000 0.000000 0.000000 0.000000 0.000000 -10.937613 4.070122 48.747493 0.761933 -5.689914 0.726487 -57.538496 13.857800 54.836957 0.000000 0.000000 0.000000 -19.005655 5.899173 49.569655 7.186967 -9.272222 1.668355 0.954331 7.229385 -11.710297 0.000000 0.000000 0.000000
